# xmcd
#
# Track frame offsets:
#	150
#	8585
#	21625
#	36178
#	49547
#	59360
#	68250
#	78920
#	90116
#	100127
#	113578
#	121745
#	134791
#	148799
#	160901
#	174707
#	184476
#	195656
#	205831
#	217924
#	230268
#
# Disc length: 3239 seconds
#
# Revision: 0
# Processed by: cddbd v1.5.2PL0 Copyright (c) Steve Scherf et al.
# Submitted via: audiograbber 1.83.01
#
DISCID=170ca515
DTITLE=Various Artist - 125 Country Hits CD 1
DYEAR=1900
DGENRE=Country
TTITLE0=JOHNNY CASH - Country Boy
TTITLE1=FREDDY FENDER - Silver Wings
TTITLE2=LORETTA LYNN - Coalminer's Daughter
TTITLE3=NAT STUCKEY - Sweet Thang
TTITLE4=BUCK OWENS - I've Got A Tiger By The Tall
TTITLE5=LYNN ANDERSON - Ride,ride,ride
TTITLE6=FERLIN HUSKY - Gone
TTITLE7=RAZZY BAILEY - 9,999,999 Tears
TTITLE8=HANK LOCKLIN - We're Gonna Go Fishing
TTITLE9=ROY ROGERS - Saddle Serenade
TTITLE10=DON GIBSON - Blue Blue Day
TTITLE11=KENNY ROGERS - Ruby (Don't Take Your Love To Town)
TTITLE12=BARBARA FAIRCHILD - Teddy Bear Song
TTITLE13=DOLLY PARTON - Two Little Orphans
TTITLE14=BILL MONROE - Blue Moon Of Kentucky
TTITLE15=HANK LOCKLIN - Happy Journey
TTITLE16=CONWAY TWITTY - It's Only Make Believe
TTITLE17=PATSY CLINE - Three Cigarettes In The Ashtray
TTITLE18=WANDA JACKSON - Right Or Wrong
TTITLE19=JEANNIE PRUETT - Satin Sheets
TTITLE20=GENE AUTRY - South Of The Border
EXTD=
EXTT0=
EXTT1=
EXTT2=
EXTT3=
EXTT4=
EXTT5=
EXTT6=
EXTT7=
EXTT8=
EXTT9=
EXTT10=
EXTT11=
EXTT12=
EXTT13=
EXTT14=
EXTT15=
EXTT16=
EXTT17=
EXTT18=
EXTT19=
EXTT20=
PLAYORDER=
